<svg width="16" height="16" viewBox="0 0 16 16" fill="none" xmlns="http://www.w3.org/2000/svg">
<g id="vuesax/linear/eye-slash">
<g id="eye-slash">
<path id="Vector" d="M9.68666 6.31328L6.31333 9.68661C5.87999 9.25328 5.61333 8.65995 5.61333 7.99995C5.61333 6.67995 6.67999 5.61328 7.99999 5.61328C8.65999 5.61328 9.25333 5.87995 9.68666 6.31328Z" stroke="#A7A7B3" stroke-width="1.5" stroke-linecap="round" stroke-linejoin="round"/>
<path id="Vector_2" d="M11.88 3.84669C10.7133 2.96669 9.38 2.48669 8 2.48669C5.64667 2.48669 3.45334 3.87336 1.92667 6.27336C1.32667 7.21336 1.32667 8.79336 1.92667 9.73336C2.45334 10.56 3.06667 11.2734 3.73334 11.8467" stroke="#A7A7B3" stroke-width="1.5" stroke-linecap="round" stroke-linejoin="round"/>
<path id="Vector_3" d="M5.61333 13.02C6.37333 13.34 7.17999 13.5133 7.99999 13.5133C10.3533 13.5133 12.5467 12.1266 14.0733 9.72662C14.6733 8.78662 14.6733 7.20662 14.0733 6.26662C13.8533 5.91995 13.6133 5.59329 13.3667 5.28662" stroke="#A7A7B3" stroke-width="1.5" stroke-linecap="round" stroke-linejoin="round"/>
<path id="Vector_4" d="M10.34 8.46667C10.1667 9.40668 9.40001 10.1733 8.46001 10.3467" stroke="#A7A7B3" stroke-width="1.5" stroke-linecap="round" stroke-linejoin="round"/>
<path id="Vector_5" d="M6.31333 9.68665L1.33333 14.6666" stroke="#A7A7B3" stroke-width="1.5" stroke-linecap="round" stroke-linejoin="round"/>
<path id="Vector_6" d="M14.6667 1.33337L9.68666 6.31337" stroke="#A7A7B3" stroke-width="1.5" stroke-linecap="round" stroke-linejoin="round"/>
</g>
</g>
</svg>
