<svg width="29" height="28" viewBox="0 0 29 28" fill="none" xmlns="http://www.w3.org/2000/svg">
<g id="phone-mobile-nap 1" clip-path="url(#clip0_11601_125353)">
<path id="Vector" d="M24.4167 7.83333V19.5C24.4167 24.1667 23.25 25.3333 18.5833 25.3333H11.5833C6.91667 25.3333 5.75 24.1667 5.75 19.5V7.83333C5.75 3.16667 6.91667 2 11.5833 2H18.5833C23.25 2 24.4167 3.16667 24.4167 7.83333Z" fill="white"/>
<path id="Vector_2" d="M26.0834 10.1666V21.8333C26.0834 26.5 24.9167 27.6666 20.25 27.6666H13.25C8.58335 27.6666 7.41669 26.5 7.41669 21.8333V10.1666C7.41669 5.49998 8.58335 4.33331 13.25 4.33331H20.25C24.9167 4.33331 26.0834 5.49998 26.0834 10.1666Z" fill="url(#paint0_linear_11601_125353)"/>
<path id="Vector_3" d="M17.0834 7H12.4167" stroke="#242424" stroke-width="1.7" stroke-linecap="round" stroke-linejoin="round"/>
<path id="Vector_4" d="M24.0834 15.1666V8.16665C24.0834 3.49998 22.9167 2.33331 18.25 2.33331H11.25C6.58335 2.33331 5.41669 3.49998 5.41669 8.16665V19.8333C5.41669 24.5 6.58335 25.6666 11.25 25.6666" stroke="#242424" stroke-width="1.7" stroke-linecap="round" stroke-linejoin="round"/>
<path id="Vector_5" d="M18.25 18.6667L14.75 22.1667L18.25 25.6667" stroke="#872BD6" stroke-width="1.7" stroke-miterlimit="10" stroke-linecap="round" stroke-linejoin="round"/>
<path id="Vector_6" d="M24.0833 22.1667H14.75" stroke="#872BD6" stroke-width="1.5" stroke-miterlimit="10" stroke-linecap="round" stroke-linejoin="round"/>
</g>
<defs>
<linearGradient id="paint0_linear_11601_125353" x1="8.97224" y1="4.33331" x2="20.7507" y2="22.6554" gradientUnits="userSpaceOnUse">
<stop stop-color="#872BD6" stop-opacity="0.4"/>
<stop offset="1" stop-color="#872BD6" stop-opacity="0"/>
</linearGradient>
<clipPath id="clip0_11601_125353">
<rect width="28" height="28" fill="white" transform="translate(0.75)"/>
</clipPath>
</defs>
</svg>
