<svg width="72" height="24" viewBox="0 0 72 24" fill="none" xmlns="http://www.w3.org/2000/svg">
<g id="Logo" clip-path="url(#clip0_14370_16221)">
<path id="Vector" d="M50.6465 5.11243L48.4898 16.9468H50.4332C51.7367 16.9468 52.8506 16.0237 53.0876 14.7455L54.8414 5.11243H50.6465ZM36.9717 4.87574L34.7202 16.9231H39.2943L40.029 12.7811L42.4463 16.9231H47.5892L47.6366 16.6627L43.7498 10.6036L49.0112 5.2071L49.0586 4.97041H43.9868L40.8348 8.47338L41.5457 4.85207L36.9717 4.87574ZM27.4918 6.29586L27.5155 4.99408H23.4865L21.3535 16.9231H25.8565L26.9941 10.6509C27.2548 9.08874 28.4161 8.355 29.5063 8.355C30.3358 8.355 31.1179 8.8521 30.8335 10.3432L29.6485 16.9231H34.1988L35.3838 10.3195C36.1422 6.08286 34.1988 4.75739 31.6156 4.73373C31.5919 4.73373 31.5445 4.73373 31.5208 4.73373C30.241 4.71006 28.6768 5.1361 27.4918 6.29586ZM53.1824 0.426035C52.3766 0.473372 51.6182 1.30177 51.476 1.98817L50.9072 4.52071H52.3055C54.3674 4.52071 55.1021 3.12426 55.1021 2.01184C55.1021 1.18343 54.6992 0.426035 53.3483 0.426035C53.3009 0.426035 53.2298 0.426035 53.1824 0.426035ZM3.03358 0.0473373L0 16.9231H13.0586C13.1534 16.9231 13.2482 16.9231 13.3667 16.9231H16.424C16.424 16.9231 16.2344 20.852 11.8262 20.5917C9.95394 20.497 9.02964 18.8876 8.91114 17.7515H5.09546C5.33246 20.7811 8.15274 24.6864 13.5326 23.858C17.3246 23.2663 19.576 21.3964 20.8084 16.9704L22.9651 4.97041H18.4147L17.3246 10.9349C17.135 12.0473 16.5662 13.4911 15.0257 13.4911C13.4852 13.4911 13.2956 12.213 13.5326 10.8876L14.5991 4.99408H10.0961L9.00594 10.9586C8.88744 11.645 8.88744 12.284 8.95854 12.8758H5.59315L7.89204 0.0473373H3.03358ZM60.2214 8.11836C60.4818 6.65088 61.1454 4 64.203 4C66.2172 4 67.0704 5.53846 67.0704 7.43196C67.0704 9.84618 65.6724 12.8994 61.8804 12.8994H60.711H59.2969L60.2214 8.11836ZM64.203 0C59.8657 0 56.1685 3.10059 55.4102 7.36092L53.6801 16.9468H61.1454C68.3742 16.9468 71.9766 12.0236 71.9766 6.88758C71.9766 2.98225 69.5826 0 64.203 0Z" fill="white"/>
</g>
<defs>
<clipPath id="clip0_14370_16221">
<rect width="72" height="24" fill="white"/>
</clipPath>
</defs>
</svg>
