<svg width="49" height="48" viewBox="0 0 49 48" fill="none" xmlns="http://www.w3.org/2000/svg">
<rect x="0.75" width="48" height="48" rx="24" fill="#C1C7D0"/>
<path d="M24.75 14C22.13 14 20 16.13 20 18.75C20 21.32 22.01 23.4 24.63 23.49C24.71 23.48 24.79 23.48 24.85 23.49C24.87 23.49 24.88 23.49 24.9 23.49C24.91 23.49 24.91 23.49 24.92 23.49C27.48 23.4 29.49 21.32 29.5 18.75C29.5 16.13 27.37 14 24.75 14Z" fill="white"/>
<path d="M29.8309 26.1489C27.0409 24.2889 22.4909 24.2889 19.6809 26.1489C18.4109 26.9989 17.7109 28.1489 17.7109 29.3789C17.7109 30.6089 18.4109 31.7489 19.6709 32.5889C21.0709 33.5289 22.9109 33.9989 24.7509 33.9989C26.5909 33.9989 28.4309 33.5289 29.8309 32.5889C31.0909 31.7389 31.7909 30.5989 31.7909 29.3589C31.7809 28.1289 31.0909 26.9889 29.8309 26.1489Z" fill="white"/>
</svg>
