<svg width="49" height="48" viewBox="0 0 49 48" fill="none" xmlns="http://www.w3.org/2000/svg">
<rect x="0.5" width="48" height="48" rx="24" fill="url(#paint0_linear_14028_29303)"/>
<g clip-path="url(#clip0_14028_29303)">
<path d="M33.4506 20.6243L32.1326 27.8564H33.3203C34.1168 27.8564 34.7976 27.2922 34.9424 26.5112L36.0142 20.6243H33.4506ZM25.0938 20.4796L23.7179 27.8419H26.5132L26.9622 25.3107L28.4394 27.8419H31.5823L31.6113 27.6828L29.236 23.98L32.4513 20.6821L32.4802 20.5375H29.3808L27.4546 22.6782L27.8891 20.4652L25.0938 20.4796ZM19.3005 21.3475L19.315 20.5519H16.8529L15.5494 27.8419H18.3012L18.9964 24.0089C19.1557 23.0542 19.8654 22.6058 20.5316 22.6058C21.0385 22.6058 21.5165 22.9096 21.3427 23.8209L20.6185 27.8419H23.3993L24.1234 23.8064C24.5869 21.2173 23.3993 20.4073 21.8206 20.3928C21.8061 20.3928 21.7772 20.3928 21.7627 20.3928C20.9806 20.3784 20.0247 20.6387 19.3005 21.3475ZM35.0003 17.7604C34.5079 17.7893 34.0444 18.2955 33.9575 18.715L33.6099 20.2627H34.4644C35.7245 20.2627 36.1735 19.4093 36.1735 18.7295C36.1735 18.2232 35.9273 17.7604 35.1017 17.7604C35.0728 17.7604 35.0293 17.7604 35.0003 17.7604ZM4.35385 17.5289L2.5 27.8419H10.4802C10.5382 27.8419 10.5961 27.8419 10.6685 27.8419H12.5369C12.5369 27.8419 12.421 30.2429 9.72711 30.0838C8.58296 30.026 8.01811 29.0424 7.94569 28.3481H5.61389C5.75872 30.1995 7.48223 32.5861 10.7699 32.0799C13.0872 31.7183 14.4631 30.5756 15.2163 27.8708L16.5342 20.5375H13.7534L13.0872 24.1825C12.9714 24.8623 12.6238 25.7446 11.6824 25.7446C10.7409 25.7446 10.6251 24.9635 10.7699 24.1535L11.4217 20.5519H8.66986L8.00363 24.1969C7.93121 24.6164 7.93121 25.0069 7.97466 25.3685H5.91804L7.32291 17.5289H4.35385ZM39.302 22.4612C39.4611 21.5644 39.8666 19.9444 41.7352 19.9444C42.9661 19.9444 43.4875 20.8846 43.4875 22.0418C43.4875 23.5171 42.6331 25.383 40.3158 25.383H39.6012H38.737L39.302 22.4612ZM41.7352 17.5C39.0846 17.5 36.8252 19.3948 36.3618 21.9983L35.3045 27.8564H39.8666C44.2842 27.8564 46.4857 24.8478 46.4857 21.7091C46.4857 19.3225 45.0227 17.5 41.7352 17.5Z" fill="white"/>
</g>
<defs>
<linearGradient id="paint0_linear_14028_29303" x1="2.42" y1="2.84445" x2="58.8815" y2="20.7656" gradientUnits="userSpaceOnUse">
<stop stop-color="#591C91"/>
<stop offset="1" stop-color="#971ACC"/>
</linearGradient>
<clipPath id="clip0_14028_29303">
<rect width="44" height="14.6667" fill="white" transform="translate(2.5 17.5)"/>
</clipPath>
</defs>
</svg>
