<svg width="97" height="96" viewBox="0 0 97 96" fill="none" xmlns="http://www.w3.org/2000/svg">
<g id="Group 1066">
<g id="Group 1065">
<circle id="Ellipse 1204" cx="48.6026" cy="47.8976" r="38.6866" fill="url(#paint0_linear_20017_39691)"/>
<path id="Ellipse 1205 (Stroke)" opacity="0.2" fill-rule="evenodd" clip-rule="evenodd" d="M48.5 94.3555C74.1119 94.3555 94.8625 73.5948 94.8625 48C94.8625 22.4052 74.1119 1.64454 48.5 1.64454C22.8881 1.64454 2.13753 22.4052 2.13753 48C2.13753 73.5948 22.8881 94.3555 48.5 94.3555ZM48.5 96C75.0097 96 96.5 74.5097 96.5 48C96.5 21.4903 75.0097 0 48.5 0C21.9903 0 0.5 21.4903 0.5 48C0.5 74.5097 21.9903 96 48.5 96Z" fill="url(#paint1_linear_20017_39691)"/>
<g id="Group 1064">
<path id="Vector 2983" d="M15.5648 15.0294L14.1642 13.1608L12.6126 15.2048L10.6161 16.5085L12.7571 17.9323L14.2855 19.898L15.6124 17.8847L17.4811 16.4841L15.5648 15.0294Z" fill="#D2DE5F"/>
<path id="Vector 2987" d="M46.6105 86.7481L45.4975 86.2244L45.2851 87.5974L44.6827 88.7344L46.0287 88.8548L47.225 89.3914L47.3408 88.0913L47.8599 86.9414L46.6105 86.7481Z" fill="#D2DE5F"/>
<path id="Vector 2988" d="M18.5093 75.1604L17.2057 74.7169L17.141 76.2709L16.613 77.611L18.1253 77.5767L19.5232 78.0241L19.4896 76.5633L19.9233 75.2192L18.5093 75.1604Z" fill="#82DC5C"/>
<path id="Vector 2984" d="M58.1967 6.97678L56.8208 6.40458L56.6316 8.03114L55.9577 9.39526L57.5961 9.4828L59.0737 10.0668L59.1494 8.53009L59.7216 7.15415L58.1967 6.97678Z" fill="#EED85E"/>
<path id="Vector 2985" d="M91.7961 21.2108L90.6273 19.6358L89.3159 21.3462L87.634 22.433L89.4263 23.6375L90.702 25.2945L91.8246 23.609L93.3996 22.4402L91.7961 21.2108Z" fill="#82DC5C"/>
<path id="Vector 2986" d="M88.6678 77.1971L87.4122 75.6903L86.1992 77.4719L84.5811 78.6517L86.4384 79.7533L87.8054 81.3359L88.8312 79.5899L90.338 78.3343L88.6678 77.1971Z" fill="#EED85E"/>
</g>
</g>
<path id="Vector (Stroke)" fill-rule="evenodd" clip-rule="evenodd" d="M66.5586 33.3378C68.6083 35.1154 68.8288 38.2181 67.0511 40.2677L48.3219 61.8626C46.6347 63.808 43.7317 64.1204 41.6693 62.5785L31.1277 54.6979C28.9546 53.0734 28.51 49.9949 30.1345 47.8219C31.759 45.6488 34.8375 45.2041 37.0106 46.8287L43.8929 51.9737L59.6287 33.8303C61.4064 31.7806 64.509 31.5601 66.5586 33.3378Z" fill="white"/>
</g>
<defs>
<linearGradient id="paint0_linear_20017_39691" x1="28.0312" y1="22.0042" x2="67.7412" y2="74.9168" gradientUnits="userSpaceOnUse">
<stop stop-color="#98DE4A"/>
<stop offset="1" stop-color="#52A931"/>
</linearGradient>
<linearGradient id="paint1_linear_20017_39691" x1="22.9762" y1="15.873" x2="72.246" y2="81.5238" gradientUnits="userSpaceOnUse">
<stop stop-color="#98DE4A"/>
<stop offset="1" stop-color="#52A931"/>
</linearGradient>
</defs>
</svg>
