<svg width="28" height="28" viewBox="0 0 28 28" fill="none" xmlns="http://www.w3.org/2000/svg">
<g id="vuesax/linear/menu">
<g id="vuesax/linear/menu_2">
<g id="menu">
<g id="Group">
<path id="Vector" d="M20.5 11C22.433 11 24 9.433 24 7.5C24 5.567 22.433 4 20.5 4C18.567 4 17 5.567 17 7.5C17 9.433 18.567 11 20.5 11Z" stroke="#872BD6" stroke-width="1.7" stroke-miterlimit="10" stroke-linecap="round" stroke-linejoin="round"/>
<path id="Vector_2" d="M7.50001 11C9.43301 11 11 9.433 11 7.5C11 5.567 9.43301 4 7.50001 4C5.56701 4 4 5.567 4 7.5C4 9.433 5.56701 11 7.50001 11Z" stroke="#292D32" stroke-width="1.7" stroke-miterlimit="10" stroke-linecap="round" stroke-linejoin="round"/>
<path id="Vector_3" d="M20.5 24C22.433 24 24 22.433 24 20.5C24 18.567 22.433 17 20.5 17C18.567 17 17 18.567 17 20.5C17 22.433 18.567 24 20.5 24Z" stroke="#292D32" stroke-width="1.7" stroke-miterlimit="10" stroke-linecap="round" stroke-linejoin="round"/>
<path id="Vector_4" d="M7.50001 24C9.43301 24 11 22.433 11 20.5C11 18.567 9.43301 17 7.50001 17C5.56701 17 4 18.567 4 20.5C4 22.433 5.56701 24 7.50001 24Z" stroke="#292D32" stroke-width="1.7" stroke-miterlimit="10" stroke-linecap="round" stroke-linejoin="round"/>
</g>
</g>
</g>
</g>
</svg>
