<svg width="25" height="24" viewBox="0 0 25 24" fill="none" xmlns="http://www.w3.org/2000/svg">
<g id="vuesax/bold/setting-4">
<g id="setting-4">
<path id="Vector" d="M22.05 7.07993H16.47C16.3562 7.07993 16.27 6.99379 16.27 6.87993C16.27 6.76607 16.3562 6.67993 16.47 6.67993H22.05C22.1639 6.67993 22.25 6.76607 22.25 6.87993C22.25 6.99379 22.1639 7.07993 22.05 7.07993Z" fill="white" stroke="white"/>
<path id="Vector_2" d="M7.17 7.07993H3.45C3.33614 7.07993 3.25 6.99379 3.25 6.87993C3.25 6.76607 3.33614 6.67993 3.45 6.67993H7.17C7.28386 6.67993 7.37 6.76607 7.37 6.87993C7.37 6.98916 7.27851 7.07993 7.17 7.07993Z" fill="white" stroke="white"/>
<path id="Vector_3" d="M14.3399 6.87993C14.3399 8.78531 12.7953 10.3299 10.8899 10.3299C8.98456 10.3299 7.43994 8.78531 7.43994 6.87993C7.43994 4.97455 8.98456 3.42993 10.8899 3.42993C12.7953 3.42993 14.3399 4.97455 14.3399 6.87993Z" fill="white" stroke="white"/>
<path id="Vector_4" d="M22.0499 17.3099H18.3299C18.216 17.3099 18.1299 17.2238 18.1299 17.1099C18.1299 16.9961 18.216 16.9099 18.3299 16.9099H22.0499C22.1637 16.9099 22.2499 16.9961 22.2499 17.1099C22.2499 17.2238 22.1637 17.3099 22.0499 17.3099Z" fill="white" stroke="white"/>
<path id="Vector_5" d="M9.03 17.3099H3.45C3.33614 17.3099 3.25 17.2238 3.25 17.1099C3.25 16.9961 3.33614 16.9099 3.45 16.9099H9.03C9.14386 16.9099 9.23 16.9961 9.23 17.1099C9.23 17.2191 9.13851 17.3099 9.03 17.3099Z" fill="white" stroke="white"/>
<path id="Vector_6" d="M14.6102 21.0699C16.7917 21.0699 18.5602 19.3014 18.5602 17.1199C18.5602 14.9384 16.7917 13.1699 14.6102 13.1699C12.4286 13.1699 10.6602 14.9384 10.6602 17.1199C10.6602 19.3014 12.4286 21.0699 14.6102 21.0699Z" fill="white"/>
</g>
</g>
</svg>
