<svg width="16" height="16" viewBox="0 0 16 16" fill="none" xmlns="http://www.w3.org/2000/svg">
<g id="phones-03 1" clip-path="url(#clip0_14117_1929)">
<path id="Vector" d="M7.23733 8.76274C6.45733 7.98274 5.86933 7.10941 5.47867 6.22341C5.396 6.03608 5.44467 5.81674 5.58933 5.67208L6.13533 5.12674C6.58267 4.67941 6.58267 4.04674 6.192 3.65608L5.40933 2.87341C4.88867 2.35274 4.04467 2.35274 3.524 2.87341L3.08933 3.30808C2.59533 3.80208 2.38933 4.51474 2.52267 5.22141C2.852 6.96341 3.864 8.87074 5.49667 10.5034C7.12933 12.1361 9.03667 13.1481 10.7787 13.4774C11.4853 13.6107 12.198 13.4047 12.692 12.9107L13.126 12.4767C13.6467 11.9561 13.6467 11.1121 13.126 10.5914L12.344 9.80941C11.9533 9.41874 11.32 9.41874 10.93 9.80941L10.328 10.4121C10.1833 10.5567 9.964 10.6054 9.77667 10.5227C8.89067 10.1314 8.01733 9.54274 7.23733 8.76274Z" stroke="#6D6B7A" stroke-width="1.5" stroke-linecap="round" stroke-linejoin="round"/>
</g>
<defs>
<clipPath id="clip0_14117_1929">
<rect width="16" height="16" fill="white"/>
</clipPath>
</defs>
</svg>
