<svg width="25" height="24" viewBox="0 0 25 24" fill="none" xmlns="http://www.w3.org/2000/svg">
<g id="vuesax/linear/ticket-2">
<g id="ticket-2">
<path id="Vector" d="M19.535 14.6927C19.535 15.9827 20.595 17.0327 21.885 17.0327C21.885 20.7827 20.945 21.7227 17.195 21.7227H7.815C4.065 21.7227 3.125 20.7827 3.125 17.0327V16.5727C4.415 16.5727 5.475 15.5127 5.475 14.2227C5.475 12.9327 4.415 11.8727 3.125 11.8727V11.4127C3.135 7.66266 4.065 6.72266 7.815 6.72266H17.185C20.935 6.72266 21.875 7.66266 21.875 11.4127V12.3527C20.585 12.3527 19.535 13.3927 19.535 14.6927Z" stroke="#A7A7B3" stroke-width="1.5" stroke-linecap="round" stroke-linejoin="round"/>
<path id="Vector_2" d="M16.8361 6.7225H7.74609L10.6761 3.7925C13.0661 1.4025 14.2661 1.4025 16.6561 3.7925L17.2561 4.3925C16.6261 5.0225 16.4761 5.9525 16.8361 6.7225Z" stroke="#A7A7B3" stroke-width="1.5" stroke-linecap="round" stroke-linejoin="round"/>
<path id="Vector_3" d="M10.5039 6.72266L10.5039 21.7227" stroke="#A7A7B3" stroke-width="1.5" stroke-linecap="round" stroke-linejoin="round" stroke-dasharray="5 5"/>
</g>
</g>
</svg>
