<svg width="25" height="24" viewBox="0 0 25 24" fill="none" xmlns="http://www.w3.org/2000/svg">
<g id="vuesax/linear/profile">
<g id="profile">
<path id="Vector" d="M12.2851 10.87C12.1851 10.86 12.0651 10.86 11.9551 10.87C9.57506 10.79 7.68506 8.84 7.68506 6.44C7.68506 3.99 9.66506 2 12.1251 2C14.5751 2 16.5651 3.99 16.5651 6.44C16.5551 8.84 14.6651 10.79 12.2851 10.87Z" stroke="#A7A7B3" stroke-width="1.5" stroke-linecap="round" stroke-linejoin="round"/>
<path id="Vector_2" d="M7.28497 14.56C4.86497 16.18 4.86497 18.82 7.28497 20.43C10.035 22.27 14.545 22.27 17.295 20.43C19.715 18.81 19.715 16.17 17.295 14.56C14.555 12.73 10.045 12.73 7.28497 14.56Z" stroke="#A7A7B3" stroke-width="1.5" stroke-linecap="round" stroke-linejoin="round"/>
</g>
</g>
</svg>
