<svg width="21" height="21" viewBox="0 0 21 21" fill="none" xmlns="http://www.w3.org/2000/svg">
<path id="Vector" d="M19.7353 6.80408L12.8064 1.15856C11.7366 0.282185 10.0068 0.282185 8.94698 1.14837L2.01802 6.80408C1.23814 7.43589 0.738215 8.77078 0.90819 9.76945L2.23799 17.8811C2.47795 19.3281 3.83775 20.5 5.27753 20.5H16.4758C17.9056 20.5 19.2754 19.3179 19.5154 17.8811L20.8452 9.76945C21.0052 8.77078 20.5052 7.43589 19.7353 6.80408ZM10.8767 14.0698C9.4969 14.0698 8.37706 12.9285 8.37706 11.5222C8.37706 10.1159 9.4969 8.97459 10.8767 8.97459C12.2565 8.97459 13.3763 10.1159 13.3763 11.5222C13.3763 12.9285 12.2565 14.0698 10.8767 14.0698Z" fill="url(#paint0_linear_14015_12123)"/>
<defs>
<linearGradient id="paint0_linear_14015_12123" x1="1.675" y1="1.68519" x2="25.2006" y2="9.15235" gradientUnits="userSpaceOnUse">
<stop stop-color="#591C91"/>
<stop offset="1" stop-color="#971ACC"/>
</linearGradient>
</defs>
</svg>
