<svg width="25" height="24" viewBox="0 0 25 24" fill="none" xmlns="http://www.w3.org/2000/svg">
<g id="vuesax/bold/ticket-2">
<g id="ticket-2">
<path id="Vector" d="M17.815 4.96C17.815 4.97 17.815 4.97 17.815 4.98C17.565 4.97 17.315 4.96 17.045 4.96H9.345L10.415 3.9C11.395 2.91 12.475 2 13.725 2C14.985 2 16.065 2.91 17.045 3.9L17.605 4.46C17.745 4.59 17.815 4.77 17.815 4.96Z" fill="url(#paint0_linear_14015_28204)"/>
<path id="Vector_2" d="M21.465 13.1702C21.855 13.1702 22.165 12.8502 22.165 12.4502V11.5702C22.165 7.6402 20.965 6.4502 17.045 6.4502H10.745H8.20501C4.28501 6.4502 3.08501 7.6502 3.08501 11.5702V12.0002C3.08501 12.4002 3.39501 12.7102 3.78501 12.7102C4.62501 12.7102 5.29501 13.3902 5.29501 14.2202C5.29501 15.0502 4.62501 15.7402 3.78501 15.7402C3.39501 15.7402 3.08501 16.0502 3.08501 16.4502V16.8802C3.08501 20.8102 4.28501 22.0002 8.20501 22.0002H10.735H17.035C20.955 22.0002 22.155 20.8002 22.155 16.8802C22.155 16.4902 21.845 16.1702 21.455 16.1702C20.615 16.1702 19.945 15.5002 19.945 14.6702C19.955 13.8402 20.625 13.1702 21.465 13.1702ZM11.445 18.8602C11.445 19.2502 11.125 19.5702 10.735 19.5702C10.345 19.5702 10.025 19.2502 10.025 18.8602V16.1802C10.025 15.7902 10.345 15.4702 10.735 15.4702C11.125 15.4702 11.445 15.7902 11.445 16.1802V18.8602ZM11.445 12.2702C11.445 12.6602 11.125 12.9802 10.735 12.9802C10.345 12.9802 10.025 12.6602 10.025 12.2702V9.5902C10.025 9.2002 10.345 8.8802 10.735 8.8802C11.125 8.8802 11.445 9.2002 11.445 9.5902V12.2702Z" fill="url(#paint1_linear_14015_28204)"/>
</g>
</g>
<defs>
<linearGradient id="paint0_linear_14015_28204" x1="9.6838" y1="2.17659" x2="15.7299" y2="7.63107" gradientUnits="userSpaceOnUse">
<stop stop-color="#591C91"/>
<stop offset="1" stop-color="#971ACC"/>
</linearGradient>
<linearGradient id="paint1_linear_14015_28204" x1="3.84821" y1="7.37168" x2="25.2991" y2="15.7259" gradientUnits="userSpaceOnUse">
<stop stop-color="#591C91"/>
<stop offset="1" stop-color="#971ACC"/>
</linearGradient>
</defs>
</svg>
