<svg width="25" height="24" viewBox="0 0 25 24" fill="none" xmlns="http://www.w3.org/2000/svg">
<g id="vuesax/outline/home">
<g id="home">
<path id="Vector" d="M18.4749 22.5598H7.27485C5.45484 22.5598 3.79485 21.1598 3.49485 19.3598L2.16484 11.3999C1.95484 10.1599 2.55485 8.56987 3.54485 7.77987L10.4749 2.22982C11.8149 1.14982 13.9248 1.15983 15.2748 2.23983L22.2049 7.77987C23.1849 8.56987 23.7849 10.1599 23.5849 11.3999L22.2549 19.3598C21.9549 21.1298 20.2649 22.5598 18.4749 22.5598ZM12.8649 2.93984C12.3349 2.93984 11.8048 3.09981 11.4148 3.40981L4.48485 8.95986C3.91485 9.41986 3.52486 10.4398 3.64486 11.1598L4.97486 19.1198C5.15486 20.1698 6.20484 21.0598 7.27485 21.0598H18.4749C19.5449 21.0598 20.5948 20.1698 20.7748 19.1098L22.1048 11.1499C22.2248 10.4299 21.8249 9.39985 21.2649 8.94985L14.3349 3.40981C13.9349 3.09981 13.4049 2.93984 12.8649 2.93984Z" fill="#A7A7B3"/>
<path id="Vector_2" d="M12.875 16.25C11.085 16.25 9.625 14.79 9.625 13C9.625 11.21 11.085 9.75 12.875 9.75C14.665 9.75 16.125 11.21 16.125 13C16.125 14.79 14.665 16.25 12.875 16.25ZM12.875 11.25C11.915 11.25 11.125 12.04 11.125 13C11.125 13.96 11.915 14.75 12.875 14.75C13.835 14.75 14.625 13.96 14.625 13C14.625 12.04 13.835 11.25 12.875 11.25Z" fill="#A7A7B3"/>
</g>
</g>
</svg>
