<svg width="48" height="48" viewBox="0 0 48 48" fill="none" xmlns="http://www.w3.org/2000/svg">
<rect width="48" height="48" rx="24" fill="black" fill-opacity="0.15"/>
<path d="M29 30.43H25L20.55 33.39C19.89 33.83 19 33.36 19 32.56V30.43C16 30.43 14 28.43 14 25.43V19.4299C14 16.4299 16 14.4299 19 14.4299H29C32 14.4299 34 16.4299 34 19.4299V25.43C34 28.43 32 30.43 29 30.43Z" stroke="#E9B161" stroke-width="1.5" stroke-miterlimit="10" stroke-linecap="round" stroke-linejoin="round"/>
<path d="M24.0001 23.3599V23.1499C24.0001 22.4699 24.4201 22.1099 24.8401 21.8199C25.2501 21.5399 25.66 21.1799 25.66 20.5199C25.66 19.5999 24.9201 18.8599 24.0001 18.8599C23.0801 18.8599 22.3401 19.5999 22.3401 20.5199" stroke="#E9B161" stroke-width="1.5" stroke-linecap="round" stroke-linejoin="round"/>
<path d="M23.9955 25.75H24.0045" stroke="#E9B161" stroke-width="1.5" stroke-linecap="round" stroke-linejoin="round"/>
</svg>
